<svg width="23" height="24" viewBox="0 0 23 24" fill="none" xmlns="http://www.w3.org/2000/svg">
<path d="M11.5 6.41016C14.6992 6.41016 17.3398 9.05078 17.3398 12.25C17.3398 15.5 14.6992 18.0898 11.5 18.0898C8.25 18.0898 5.66016 15.5 5.66016 12.25C5.66016 9.05078 8.25 6.41016 11.5 6.41016ZM11.5 16.0586C13.582 16.0586 15.2578 14.3828 15.2578 12.25C15.2578 10.168 13.582 8.49219 11.5 8.49219C9.36719 8.49219 7.69141 10.168 7.69141 12.25C7.69141 14.3828 9.41797 16.0586 11.5 16.0586ZM18.9141 6.20703C18.9141 5.44531 18.3047 4.83594 17.543 4.83594C16.7812 4.83594 16.1719 5.44531 16.1719 6.20703C16.1719 6.96875 16.7812 7.57812 17.543 7.57812C18.3047 7.57812 18.9141 6.96875 18.9141 6.20703ZM22.7734 7.57812C22.875 9.45703 22.875 15.0938 22.7734 16.9727C22.6719 18.8008 22.2656 20.375 20.9453 21.7461C19.625 23.0664 18 23.4727 16.1719 23.5742C14.293 23.6758 8.65625 23.6758 6.77734 23.5742C4.94922 23.4727 3.375 23.0664 2.00391 21.7461C0.683594 20.375 0.277344 18.8008 0.175781 16.9727C0.0742188 15.0938 0.0742188 9.45703 0.175781 7.57812C0.277344 5.75 0.683594 4.125 2.00391 2.80469C3.375 1.48438 4.94922 1.07812 6.77734 0.976562C8.65625 0.875 14.293 0.875 16.1719 0.976562C18 1.07812 19.625 1.48438 20.9453 2.80469C22.2656 4.125 22.6719 5.75 22.7734 7.57812ZM20.3359 18.9531C20.9453 17.4805 20.793 13.9258 20.793 12.25C20.793 10.625 20.9453 7.07031 20.3359 5.54688C19.9297 4.58203 19.168 3.76953 18.2031 3.41406C16.6797 2.80469 13.125 2.95703 11.5 2.95703C9.82422 2.95703 6.26953 2.80469 4.79688 3.41406C3.78125 3.82031 3.01953 4.58203 2.61328 5.54688C2.00391 7.07031 2.15625 10.625 2.15625 12.25C2.15625 13.9258 2.00391 17.4805 2.61328 18.9531C3.01953 19.9688 3.78125 20.7305 4.79688 21.1367C6.26953 21.7461 9.82422 21.5938 11.5 21.5938C13.125 21.5938 16.6797 21.7461 18.2031 21.1367C19.168 20.7305 19.9805 19.9688 20.3359 18.9531Z" fill="#33291C"/>
</svg>
